<svg width="1920" height="1080" viewBox="0 0 1920 1080" fill="none" xmlns="http://www.w3.org/2000/svg">
<path d="M510 447.5L490 497L487.5 494.5V490.5L479.5 483.5L484.5 477V471L486.5 467.5L457.569 450.54L471.811 425.805L510 447.5Z" fill="#808080"/>
<path d="M470.072 424.817L459.458 443.251L444.5 432.5V427.5L434 420.5L437 408.5L413.244 398.411L415.359 393.735L470.072 424.817Z" fill="#808080"/>
<path d="M413.613 392.743L411.402 397.63L400.5 393L398 404.5L377 395.5L381.5 374.5L413.613 392.743Z" fill="#808080"/>
<path d="M379 328.5L370.5 351.5L328.5 344V337.5L359 308L379 328.5Z" fill="#808080"/>
<path d="M501.108 366.113L472 417.5L452.148 406.127L481.356 354.894L501.108 366.113Z" fill="#A080FF"/>
<path d="M479.617 353.905L450.413 405.132L424 390L453.008 338.79L479.617 353.905Z" fill="#A080FF"/>
<path d="M467.5 299L414.5 392L382 373.5L388.5 339L420.5 287L438.5 269.5L467.5 299Z" fill="#A080FF"/>
<path d="M521 331L502.094 364.374L453.994 337.051L473 303.5L521 331Z" fill="#A080FF"/>
<path d="M532.044 283.998L534.996 317.936L537.125 334.44L476.245 299.168L496.17 264.019L532.044 283.998Z" fill="#A080FF"/>
<path d="M429.5 260.5L403 288L380 327.5L359.442 307.421L419.015 249.663L429.5 260.5Z" fill="#A080FF"/>
<path d="M414.843 245.351L343.063 314.944L332.5 303.5L321.456 294.624L394.031 223.841L414.843 245.351Z" fill="#A080FF"/>
<path d="M489.279 260.18L469.834 293.827L441.823 264.01L442.126 263.669L453.611 250.685L459.401 243.539L489.279 260.18Z" fill="#A080FF"/>
<path d="M392.641 222.403L319.886 293.361L302.104 279.069L377.209 206.454L392.641 222.403Z" fill="#A080FF"/>
<path d="M575.698 208.449L539.432 251.264L533.491 265.619L532.145 281.765L497.157 262.277L518.402 224.802L552.96 188.351L575.698 208.449Z" fill="#A080FF"/>
<path d="M373.036 202.142L297.39 275.28L279 260.5L302 234.5L297.5 231L326 205L355 183.5L373.036 202.142Z" fill="#A080FF"/>
<path d="M546.209 182.383L512.127 220.668L512.093 220.706L490.28 258.447L460.681 241.961L492.088 203.214L518.879 158.226L546.209 182.383Z" fill="#A080FF"/>
<path d="M459.374 223.835L449 238L435 255L404.238 224.032L432.05 196.806L459.374 223.835Z" fill="#A080FF"/>
<path d="M513.019 153.729L501 167L460.568 222.203L433.479 195.406L493.659 136.496L513.019 153.729Z" fill="#A080FF"/>
<path d="M426.362 191.179L398.601 218.356L360.5 180L389.5 162L394.727 159.884L426.362 191.179Z" fill="#A080FF"/>
<path d="M652.5 126.5L580 203.5L556.38 182.622L620.662 111.788L652.5 126.5Z" fill="#A080FF"/>
<path d="M491.331 127.58L427.792 189.779L396.745 159.066L431.5 145L427 137L467.263 101.473L491.331 127.58Z" fill="#A080FF"/>
<path d="M615.415 109.364L551.896 178.658L524 154L580 93L615.415 109.364Z" fill="#A080FF"/>
<path d="M573 87.5L518.39 147.799L499.39 130.887L560.067 71.4883L573 87.5Z" fill="#A080FF"/>
<path d="M552 61.5L555.018 65.2363L492.761 126.18L468.764 100.149L495 77L505.5 89L539.5 53L552 61.5Z" fill="#A080FF"/>
<path d="M531.703 383.242L528.5 404.5L514 441L475.5 420.5L505.712 368.15L531.703 383.242Z" fill="#FF003F"/>
<path d="M538.5 340.5L540 349.5L534 368L532.023 381.114L506.712 366.418L526 333L538.5 340.5Z" fill="#FF003F"/>
</svg>
