<svg width="1920" height="1080" viewBox="0 0 1920 1080" fill="none" xmlns="http://www.w3.org/2000/svg">
<path d="M687.353 790.208L676.946 808.503L676.509 808.243L655.863 796.013L665.976 777.992L687.353 790.208Z" fill="#9F7FFF"/>
<path d="M761.092 778.723L740.473 794.183L702.024 772.219L713.433 751.886L761.092 778.723Z" fill="#9F7FFF"/>
<path d="M695.373 776.107L688.094 788.904L666.709 776.684L673.81 764.032L695.373 776.107Z" fill="#9F7FFF"/>
<path d="M780.169 751.983L773.813 769.186L773.695 769.274L762.403 777.74L714.167 750.578L729.426 723.383L780.169 751.983Z" fill="#9F7FFF"/>
<path d="M702.333 761.448L696.819 771.276L697.806 771.83L696.114 774.805L674.543 762.725L681.587 750.173L702.333 761.448Z" fill="#9F7FFF"/>
<path d="M710.116 747.576L703.067 760.139L682.321 748.864L689.589 735.913L710.116 747.576Z" fill="#9F7FFF"/>
<path d="M718.184 733.198L710.85 746.268L690.323 734.604L690.541 734.218L695.844 720.433L718.184 733.198Z" fill="#9F7FFF"/>
<path d="M777.93 699.01L763.147 740.668L730.16 722.074L741.043 702.678L769.626 719.149L770.374 717.851L741.776 701.371L750.732 685.411L777.93 699.01Z" fill="#9F7FFF"/>
<path d="M731.579 709.323L720.631 728.838L697.66 715.712L697.881 715.141L688.442 708.401L697.312 691.017L731.579 709.323Z" fill="#9F7FFF"/>
<path d="M843.167 636.353L821.801 691.228L821.559 691.852L822.15 692.163L838.591 700.84L840.561 717.897L840.58 718.06L840.498 718.202L837.269 723.853L789.2 700.098L789.618 699.264L753.075 680.992L764.304 658.99L793.809 673.742L784.802 696.727L786.198 697.273L814.348 625.441L843.167 636.353Z" fill="#9F7FFF"/>
<path d="M709.107 664.599L685.423 711.019L679.636 717.332L671.073 700.067L693.244 656.667L709.107 664.599Z" fill="#9F7FFF"/>
<path d="M899.656 657.739L899.706 657.863L899.789 658.071L872.722 712.188L872.496 712.64L844.465 698.249L838.37 698.926L838.382 699.034L823.441 691.149L844.571 636.884L899.656 657.739Z" fill="#9F7FFF"/>
<path d="M746.254 683.172L732.313 708.016L713.987 698.226L726.843 673.466L746.254 683.172Z" fill="#9F7FFF"/>
<path d="M691.903 655.996L670.243 698.395L659.681 677.098L674.848 647.469L691.903 655.996Z" fill="#9F7FFF"/>
<path d="M725.501 672.795L712.664 697.518L697.993 689.681L710.448 665.269L725.501 672.795Z" fill="#9F7FFF"/>
<path d="M763.193 650.165L748.603 678.756L731.099 670.004L745.686 641.235L763.193 650.165Z" fill="#9F7FFF"/>
<path d="M802.739 650.951L794.357 672.34L764.985 657.654L775.577 636.901L802.739 650.951Z" fill="#9F7FFF"/>
<path d="M678.502 629.356L656.916 671.523L635.116 627.569L635.006 627.348L642.722 611.693L678.502 629.356Z" fill="#9F7FFF"/>
<path d="M744.35 640.554L729.757 669.333L713.694 661.301L728.35 632.393L744.35 640.554Z" fill="#9F7FFF"/>
<path d="M727.013 631.711L712.353 660.63L697.089 652.998L711.65 623.875L727.013 631.711Z" fill="#9F7FFF"/>
<path d="M710.314 623.193L695.747 652.327L677.127 643.018L692.045 613.874L710.314 623.193Z" fill="#9F7FFF"/>
<path d="M919.63 530.777L924.462 542.632V584.826L924.366 584.958L912.401 601.403L903.487 618.483V650.635L813.891 616.714L824.698 585.274L848.693 527.287L848.711 527.244L848.723 527.2L854.68 505.661L919.63 530.777Z" fill="#9F7FFF"/>
<path d="M812.945 624.91L803.29 649.547L776.259 635.565L786.757 614.995L812.945 624.91Z" fill="#9F7FFF"/>
<path d="M782.368 612.595L763.875 648.829L746.364 639.897L765.356 602.439L782.368 612.595Z" fill="#9F7FFF"/>
<path d="M764.066 601.668L745.027 639.216L729.027 631.055L748.604 592.438L764.066 601.668Z" fill="#9F7FFF"/>
<path d="M747.313 591.667L727.691 630.373L712.321 622.533L732.251 582.674L747.313 591.667Z" fill="#9F7FFF"/>
<path d="M687.166 612.432L679.186 628.021L643.386 610.347L651.125 594.645L687.166 612.432Z" fill="#9F7FFF"/>
<path d="M730.959 581.903L710.984 621.852L692.729 612.539L713.689 571.593L730.959 581.903Z" fill="#9F7FFF"/>
<path d="M853.273 505.117L847.29 526.751L823.307 584.713L823.298 584.734L823.291 584.756L812.487 616.183L789.247 607.384L745.669 581.367L796.287 483.08L853.273 505.117Z" fill="#9F7FFF"/>
<path d="M608.175 577.972L605.33 582.594L603.853 592.196L603.08 615.353L602.415 615.079L568.881 601.341L589.79 566.794L608.175 577.972Z" fill="#808080"/>
<path d="M695.831 595.504L687.85 611.096L651.789 593.299L659.625 577.4L695.831 595.504Z" fill="#9F7FFF"/>
<path d="M588.509 566.015L567.476 600.765L556.721 596.359L556.669 596.338L556.624 596.306L549.133 591.064L549.088 591.033L549.051 590.992L548.949 590.882L570.746 555.215L588.509 566.015Z" fill="#808080"/>
<path d="M709.387 569.023L696.515 594.169L675.909 583.866L689.494 557.148L709.387 569.023Z" fill="#9F7FFF"/>
<path d="M569.465 554.437L547.896 589.732L540.811 582.007L540.749 581.939L540.715 581.854L539.246 578.185L535.822 574.076L553.336 544.63L569.465 554.437Z" fill="#808080"/>
<path d="M688.203 556.377L674.567 583.195L660.288 576.056L660.358 575.915L655.709 573.746L673.306 547.483L688.203 556.377Z" fill="#9F7FFF"/>
<path d="M757.719 554.69L744.378 580.596L717.326 564.445L729.448 540.323L757.719 554.69Z" fill="#9F7FFF"/>
<path d="M651.496 565.659L648.371 570.322L638.776 565.847L633.757 575.166L633.691 575.287L633.574 575.358L629.599 577.742L613.944 570.29L611.24 572.993L610.796 573.714L589.232 560.604L603.86 536.688L651.496 565.659Z" fill="#9F7FFF"/>
<path d="M550.899 538.946L531.619 571.363L525.864 567.823L525.811 567.758L518.892 559.304L518.984 559.038L530.509 526.202L550.899 538.946Z" fill="#808080"/>
<path d="M666.426 543.376L652.332 564.412L636.137 554.562L649.066 533.012L666.426 543.376Z" fill="#9F7FFF"/>
<path d="M725.09 537.862L713.022 561.876L677.555 540.701L689.534 519.629L725.09 537.862Z" fill="#9F7FFF"/>
<path d="M602.579 535.908L587.95 559.824L573.353 550.949L587.974 527.025L602.579 535.908Z" fill="#9F7FFF"/>
<path d="M647.778 532.243L634.854 553.782L620.392 544.986L633.634 523.799L647.778 532.243Z" fill="#9F7FFF"/>
<path d="M769.099 532.594L758.406 553.356L730.122 538.982L740.977 517.38L769.099 532.594Z" fill="#9F7FFF"/>
<path d="M586.692 526.246L572.071 550.17L555.892 540.333L570.226 516.23L586.692 526.246Z" fill="#9F7FFF"/>
<path d="M632.347 523.03L619.11 544.207L604.644 535.408L617.6 514.226L632.347 523.03Z" fill="#9F7FFF"/>
<path d="M579.227 491.316L551.666 537.657L531.018 524.752L533.966 516.355L533.979 516.32L552.028 475.078L579.227 491.316Z" fill="#9F7FFF"/>
<path d="M696.395 491.375L670.683 536.6L648.247 523.205L673.944 478.546L696.395 491.375Z" fill="#9F7FFF"/>
<path d="M736.84 514.48L725.763 536.522L690.276 518.325L702.471 496.877L736.84 514.48Z" fill="#9F7FFF"/>
<path d="M616.312 513.457L603.362 534.628L588.756 525.745L601.624 504.688L616.312 513.457Z" fill="#9F7FFF"/>
<path d="M780.573 510.314L769.785 531.261L741.65 516.04L752.13 495.185L780.573 510.314Z" fill="#9F7FFF"/>
<path d="M600.337 503.92L587.475 524.967L570.992 514.942L583.52 493.879L600.337 503.92Z" fill="#9F7FFF"/>
<path d="M672.642 477.802L646.958 522.436L624.651 509.118L649.927 464.822L672.642 477.802Z" fill="#9F7FFF"/>
<path d="M924.757 502.248L924.456 519.092L918.539 521.779L888.527 510.174L896.029 491.199L924.757 502.248Z" fill="#9F7FFF"/>
<path d="M749.191 489.9L737.514 513.14L703.213 495.57L716.099 472.907L749.191 489.9Z" fill="#9F7FFF"/>
<path d="M894.63 490.661L887.129 509.633L858.646 498.618L863.946 478.859L894.63 490.661Z" fill="#9F7FFF"/>
<path d="M794.879 482.536L781.261 508.98L752.804 493.844L764.407 470.752L794.879 482.536Z" fill="#9F7FFF"/>
<path d="M635.838 486.486L623.363 508.349L587.592 486.993L599.505 465.93L635.838 486.486Z" fill="#9F7FFF"/>
<path d="M886.042 347.619L896.469 352.83L896.872 353.032L868.386 428.716L920.001 463.862L919.241 469.931L925.084 476.501L925.214 476.647L925.211 476.843L924.785 500.651L864.337 477.402L875.188 436.96L867.405 432.829L868.705 429.256L867.295 428.744L866.066 432.119L799.291 396.688L771.717 372.39L808.591 341.048L808.368 340.786L845.325 310.685L886.042 347.619Z" fill="#808080"/>
<path d="M509.528 449.705L489.663 496.432L487.527 494.297L486.78 489.817L479.074 482.885L484.476 475.94L483.753 470.156L483.741 470.065L484.425 467.237L456.392 450.216L456.529 449.832L456.948 448.656L470.24 426.25L509.528 449.705Z" fill="#808080"/>
<path d="M858.37 468.772L851.142 495.716L809.527 479.623L819.592 453.538L858.37 468.772Z" fill="#9F7FFF"/>
<path d="M721.646 446.963L697.136 490.07L674.692 477.246L699.343 434.406L721.646 446.963Z" fill="#9F7FFF"/>
<path d="M759.936 468.52L749.865 488.561L716.841 471.602L728.618 450.889L759.936 468.52Z" fill="#9F7FFF"/>
<path d="M648.624 464.078L636.58 485.185L600.243 464.625L612.294 443.317L648.624 464.078Z" fill="#9F7FFF"/>
<path d="M632.904 396.72L583.299 484.43L555.328 467.73L603.393 382.939L604.153 383.368L605.753 380.523L632.904 396.72Z" fill="#9F7FFF"/>
<path d="M818.215 452.939L808.128 479.082L768.055 463.586L782.886 434.797L818.215 452.939Z" fill="#9F7FFF"/>
<path d="M698.035 433.671L673.39 476.501L650.67 463.519L675.076 420.745L698.035 433.671Z" fill="#9F7FFF"/>
<path d="M865.811 441.04L858.761 467.313L820.132 452.138L831.448 422.807L865.811 441.04Z" fill="#9F7FFF"/>
<path d="M661.259 441.935L649.368 462.774L613.032 442.012L625.08 420.71L661.259 441.935Z" fill="#9F7FFF"/>
<path d="M776.692 435.902L763.565 461.384L732.571 443.935L746.195 419.971L776.692 435.902Z" fill="#9F7FFF"/>
<path d="M830.113 422.099L818.758 451.532L783.572 433.464L798.161 405.145L830.113 422.099Z" fill="#9F7FFF"/>
<path d="M414.639 393.157L414.681 393.08L468.952 425.48L458.576 442.971L443.217 432.412L443 432.263V427.757L433.2 420.399L432.948 420.211L435.43 407.8L400.728 392.921L398.479 404.913L375.811 394.755L380.045 374.154L414.639 393.157Z" fill="#808080"/>
<path d="M531.939 384.114L528.179 405.838L512.688 442.273L474.893 419.71L504.146 368.233L531.939 384.114Z" fill="#FF003F"/>
<path d="M673.769 420.009L662.002 440.632L625.818 419.404L637.139 399.387L673.769 420.009Z" fill="#9F7FFF"/>
<path d="M745.324 400.685L739.382 415.769L725.6 440.009L701.53 426.458L723.501 388.009L745.324 400.685Z" fill="#9F7FFF"/>
<path d="M793.864 402.568L777.38 434.567L746.856 418.623L753.165 402.608L761.948 384.553L766.379 378.349L793.864 402.568Z" fill="#9F7FFF"/>
<path d="M722.204 387.255L700.223 425.722L679.041 413.797L701.161 375.032L722.204 387.255Z" fill="#9F7FFF"/>
<path d="M499.806 365.752L470.598 417.146L450.812 405.333L479.871 354.361L499.806 365.752Z" fill="#9F7FFF"/>
<path d="M689.351 392.703L677.733 413.061L641.077 392.424L652.835 371.636L689.351 392.703Z" fill="#9F7FFF"/>
<path d="M478.569 353.617L449.524 404.564L424.399 389.564L452.905 338.952L478.569 353.617Z" fill="#9F7FFF"/>
<path d="M760.346 373.032L755.05 380.448L745.903 399.25L745.889 399.277L724.245 386.706L741.532 356.454L760.346 373.032Z" fill="#9F7FFF"/>
<path d="M640.786 382.784L633.644 395.414L606.488 379.216L613.45 366.839L640.786 382.784Z" fill="#9F7FFF"/>
<path d="M699.864 374.279L690.095 391.4L653.573 370.33L663.339 353.063L699.864 374.279Z" fill="#9F7FFF"/>
<path d="M466.102 299.224L414.271 391.244L380.36 372.617L387.128 339.698L387.145 339.614L387.189 339.541L420.148 284.877L420.192 284.805L429.218 277.285L436.587 269.305L466.102 299.224Z" fill="#9F7FFF"/>
<path d="M740.383 355.441L722.948 385.952L701.905 373.729L721.723 338.998L740.383 355.441Z" fill="#9F7FFF"/>
<path d="M540.004 343.994L540.921 348.689L540.946 348.818L540.904 348.943L534.924 366.878L532.211 382.542L504.888 366.929L523.46 334.249L540.004 343.994Z" fill="#FF003F"/>
<path d="M653.689 359.971L641.524 381.479L614.186 365.531L626.259 344.065L653.689 359.971Z" fill="#9F7FFF"/>
<path d="M624.962 343.313L605.104 378.617L592.396 371.561L612.569 336.128L624.962 343.313Z" fill="#9F7FFF"/>
<path d="M710.221 356.128L700.607 372.976L664.077 351.758L673.566 334.98L710.221 356.128Z" fill="#9F7FFF"/>
<path d="M611.272 335.376L591.086 370.832L585.882 367.942L585.681 367.831L585.635 367.605L582.965 354.578L598.18 327.784L611.272 335.376Z" fill="#9F7FFF"/>
<path d="M800.612 337.329L765.651 367.045L750.24 353.465L784.687 314.486L800.612 337.329Z" fill="#9F7FFF"/>
<path d="M519.151 331.711L500.546 364.448L453.642 337.646L472.472 304.215L519.151 331.711Z" fill="#9F7FFF"/>
<path d="M663.912 341.896L656.151 355.617L628.711 339.706L636.286 326.241L663.912 341.896Z" fill="#9F7FFF"/>
<path d="M720.573 337.985L710.964 354.825L674.305 333.675L688.067 309.341L720.573 337.985Z" fill="#9F7FFF"/>
<path d="M777.03 249.971L766.535 261.96L780.76 282.915L780.525 283.204L771.024 294.892L783.804 313.221L749.115 352.474L733.139 338.396L770.565 295.493L769.435 294.507L732.014 337.403L714.108 321.626L766.562 262.498L765.438 261.502L761.691 265.725L741.112 247.483L763.612 231.342L777.03 249.971Z" fill="#9F7FFF"/>
<path d="M379.312 329.872L376.841 334.012L371.488 351.595L327.216 344.43L326.781 337.25L357.225 307.785L379.312 329.872Z" fill="#808080"/>
<path d="M602.756 309.6L581.44 347.138L572.9 305.453L572.888 305.394L572.891 305.332L573.399 293.112L602.756 309.6Z" fill="#808080"/>
<path d="M671.912 327.75L664.65 340.59L637.021 324.934L644.18 312.21L671.912 327.75Z" fill="#9F7FFF"/>
<path d="M642.871 311.477L627.414 338.954L615.044 331.781L630.539 304.566L642.871 311.477Z" fill="#9F7FFF"/>
<path d="M531.461 285.391L534.931 318.001L537.956 333.503L476.398 297.243L495.016 264.19L531.461 285.391Z" fill="#9F7FFF"/>
<path d="M629.231 303.834L613.747 331.029L600.649 323.436L615.992 296.415L629.231 303.834Z" fill="#9F7FFF"/>
<path d="M428.933 261.47L404.498 287.685L380.104 328.544L358.303 306.742L417.417 249.525L428.933 261.47Z" fill="#9F7FFF"/>
<path d="M684.234 305.964L672.65 326.444L657.199 317.786L670.622 293.969L684.234 305.964Z" fill="#9F7FFF"/>
<path d="M724.047 308.158L712.982 320.633L692.558 302.636L703.509 290.008L724.047 308.158Z" fill="#9F7FFF"/>
<path d="M669.473 292.956L655.891 317.053L642.375 309.479L657.729 282.607L669.473 292.956Z" fill="#9F7FFF"/>
<path d="M649.244 294.434L641.066 308.746L616.732 295.111L624.932 280.671L649.244 294.434Z" fill="#9F7FFF"/>
<path d="M612.259 292.866L603.497 308.295L573.47 291.431L573.642 287.314L573.652 287.269L577.021 272.674L612.259 292.866Z" fill="#9F7FFF"/>
<path d="M736.035 294.645L725.042 307.036L704.491 288.875L715.422 276.271L736.035 294.645Z" fill="#9F7FFF"/>
<path d="M707.062 278.28L688.807 299.33L675.273 287.405L693.703 266.405L707.062 278.28Z" fill="#9F7FFF"/>
<path d="M391.624 222.771L318.646 294.011L300.865 278.905L375.696 206.25L391.624 222.771Z" fill="#9F7FFF"/>
<path d="M748.25 280.876L737.03 293.522L716.404 275.139L727.681 262.135L748.25 280.876Z" fill="#9F7FFF"/>
<path d="M656.581 281.596L649.988 293.132L625.672 279.368L635.137 262.699L656.581 281.596Z" fill="#9F7FFF"/>
<path d="M488.1 260.167L470.187 291.972L442.021 263.42L447.164 257.851L458.738 243.088L488.1 260.167Z" fill="#9F7FFF"/>
<path d="M631.306 259.323L612.999 291.562L597.539 282.703L617.958 247.562L631.306 259.323Z" fill="#9F7FFF"/>
<path d="M692.581 265.408L674.148 286.413L664.469 277.884L682.885 256.789L692.581 265.408Z" fill="#9F7FFF"/>
<path d="M575.038 209.866L539.356 251.71L533.426 264.308L531.195 282.889L531.265 283.541L495.752 262.883L515.772 227.34L550.68 188.299L575.038 209.866Z" fill="#9F7FFF"/>
<path d="M616.812 246.551L596.237 281.957L577.373 271.147L578.168 267.707L586.462 255.647L586.478 255.625L586.495 255.604L604.01 235.271L616.812 246.551Z" fill="#9F7FFF"/>
<path d="M760.696 266.847L749.246 279.754L728.664 261.002L739.195 248.859L739.862 248.38L760.696 266.847Z" fill="#9F7FFF"/>
<path d="M717.534 266.204L708.044 277.147L683.871 255.66L693.346 244.807L717.534 266.204Z" fill="#9F7FFF"/>
<path d="M681.763 255.793L663.343 276.892L653.531 268.245L672.012 247.125L681.763 255.793Z" fill="#9F7FFF"/>
<path d="M372.226 202.65L297.037 275.653L278.677 260.056L278.263 259.705L292.857 245.114L301.551 234.251L298.123 230.824L297.759 230.461L325.1 204.647L325.118 204.63L325.139 204.614L353.295 183.014L372.226 202.65Z" fill="#9F7FFF"/>
<path d="M670.89 246.128L652.405 267.254L639.686 256.045L658.354 234.985L670.89 246.128Z" fill="#9F7FFF"/>
<path d="M734.265 246.914L718.517 265.071L694.332 243.677L715.707 219.192L734.265 246.914Z" fill="#9F7FFF"/>
<path d="M544.69 182.996L509.229 222.658L488.836 258.86L459.673 241.896L490.579 202.479L516.034 161.316L516.059 161.277L516.089 161.243L517.884 159.261L544.69 182.996Z" fill="#9F7FFF"/>
<path d="M458.427 224.943L445.697 242.002L445.69 242.012L445.683 242.021L435.195 254.751L435.186 254.763L435.175 254.774L434.396 255.609L403.327 223.383L430.595 196.705L458.427 224.943Z" fill="#9F7FFF"/>
<path d="M692.222 243.812L682.749 254.663L659.35 233.863L668.854 223.142L692.222 243.812Z" fill="#9F7FFF"/>
<path d="M658.411 227.387L655.613 230.542L655.498 230.439L654.502 231.561L654.619 231.664L635.935 252.74L623.207 241.524L646.57 216.521L658.411 227.387Z" fill="#9F7FFF"/>
<path d="M753.748 232.266L738.026 243.545L719.39 215.706L735.72 205.556L753.748 232.266Z" fill="#9F7FFF"/>
<path d="M702.92 231.558L693.208 242.683L669.85 222.02L679.421 211.223L702.92 231.558Z" fill="#9F7FFF"/>
<path d="M670.189 214.101L659.405 226.265L633.507 202.499L632.493 203.604L645.466 215.508L622.082 240.533L609.231 229.209L609.717 228.646L609.718 228.646L643.561 189.665L670.189 214.101Z" fill="#9F7FFF"/>
<path d="M776.839 207.02L781.072 212.663L754.969 231.39L741.949 212.102L771.806 192.649L776.839 207.02Z" fill="#9F7FFF"/>
<path d="M714.843 217.901L703.907 230.427L680.417 210.099L697.056 191.331L714.843 217.901Z" fill="#9F7FFF"/>
<path d="M512.374 154.382L505.605 161.9L480.903 194.825L480.904 194.826L459.335 223.728L431.667 195.656L492.155 136.48L512.374 154.382Z" fill="#9F7FFF"/>
<path d="M424.979 191.008L397.774 217.624L359.927 178.365L388.859 161.149L388.896 161.128L388.936 161.113L393.702 159.273L424.979 191.008Z" fill="#9F7FFF"/>
<path d="M734.88 204.312L718.556 214.46L700.658 187.725L716.506 177.091L734.88 204.312Z" fill="#9F7FFF"/>
<path d="M682.824 199.849L671.184 212.979L644.595 188.579L657.778 176.865L682.824 199.849Z" fill="#9F7FFF"/>
<path d="M756.142 201.064L741.11 210.858L717.752 176.255L732.849 166.126L756.142 201.064Z" fill="#9F7FFF"/>
<path d="M634.271 116.193L634.292 116.203L634.312 116.215L652.097 126.264L601.47 179.895L580.273 203.816L555.464 181.85L620.566 110.046L634.271 116.193Z" fill="#9F7FFF"/>
<path d="M774.825 190.149L774.672 190.264L774.091 189.372L757.398 200.246L734.095 165.29L750.62 154.202L774.825 190.149Z" fill="#9F7FFF"/>
<path d="M696.944 184.197L696.342 184.603L696.129 184.842L683.818 198.727L658.904 175.864L664.446 170.94L664.479 170.911L664.518 170.888L681.604 160.419L696.944 184.197Z" fill="#9F7FFF"/>
<path d="M490.441 126.965L426.052 189.959L395.228 158.685L431.062 144.858L425.919 136.777L465.729 101.354L490.441 126.965Z" fill="#9F7FFF"/>
<path d="M716.756 170.904L698.189 183.361L682.882 159.635L687.707 156.68L700.735 146.073L716.756 170.904Z" fill="#9F7FFF"/>
<path d="M579.588 91.665L615.767 107.894L551.72 178.534L523.256 153.331L579.256 91.5166L579.588 91.665Z" fill="#9F7FFF"/>
<path d="M736.566 157.611L718.001 170.068L701.905 145.121L719.349 130.923L736.566 157.611Z" fill="#9F7FFF"/>
<path d="M740.854 114.129L759.392 142.297L737.812 156.776L720.518 129.971L740.55 113.666L740.854 114.129Z" fill="#9F7FFF"/>
<path d="M573.032 86.3857L573.296 86.7168L517.727 148.437L497.889 130.871L560.056 70.0508L573.032 86.3857Z" fill="#9F7FFF"/>
<path d="M552.752 60.8564L552.808 60.9258L555.054 63.7529L491.514 125.916L466.851 100.355L494.78 75.5049L505.239 87.4541L538.85 52.3633L552.752 60.8564Z" fill="#9F7FFF"/>
<path d="M413.947 245.927L342.571 315.011L330.53 302.97L329.425 303.167L319.795 294.985L392.665 223.851L413.947 245.927Z" fill="#9F7FFF"/>
<path d="M341.494 316.055L326.385 330.678L325.501 316.03L325.495 315.939L325.522 315.853L329.241 303.764L341.494 316.055Z" fill="#12DD70"/>
<path d="M1003.6 955.869L1003.01 956.842L1040.54 979.687L1015.47 1007.61L975.746 988.521L990.664 954.432L998.704 952.605L1003.6 955.869Z" fill="#9F7FFF"/>
<path d="M938.161 966.096L938.074 966.238L938.783 966.674L935.176 972.342L957.546 982.777L950.459 1002.46L942.786 998.622L941.228 1000.18L936.696 996.559L938.84 994.415L929.958 990.16L930.908 984.304L913.229 974.974L923.457 958.563L938.161 966.096Z" fill="#10DD6F"/>
<path d="M780.386 959.1C780.602 962.113 780.829 965.067 781.042 967.748L767.768 977.399L752.086 1000.54L751.873 1000.85L751.654 1000.78L763.409 979.792L771.873 970.333L771.909 970.293L771.936 970.246L780.147 955.685C780.225 956.825 780.304 957.967 780.386 959.1Z" fill="#9F7FFF"/>
<path d="M774.36 963.907L771.09 969.707L762.627 979.167L762.591 979.208L762.563 979.256L750.688 1000.46L748.711 999.801L748.981 999.281L767.871 962.908L774.36 963.907Z" fill="#9F7FFF"/>
<path d="M904.5 977.967L903.026 977.262L904.5 974.789V977.967Z" fill="#9F7FFF"/>
<path d="M981.288 919.87L960.947 974.733L940 965.011L964.04 925.888L976.25 932.933L976.75 932.067L963.75 924.567L963.731 924.557L963.712 924.547L948.967 917.635L955.481 907.185L981.288 919.87Z" fill="#10DD6F"/>
<path d="M1056.96 955.324L1042.27 971.372L1013.99 954.157L1023.59 938.29L1023.65 938.151C1023.67 938.107 1023.73 938.014 1023.84 937.867C1024.06 937.569 1024.38 937.174 1024.77 936.743C1025.22 936.255 1025.71 935.78 1026.22 935.362L1056.96 955.324Z" fill="#9F7FFF"/>
<path d="M822.346 962.393L822.771 962.65L820.077 967.139L810.729 964.803L810.651 964.783L810.585 964.741L809.447 964.03L813.312 956.896L822.346 962.393Z" fill="#9F7FFF"/>
<path d="M963.169 925.396L938.687 965.24L923.987 957.712L948.435 918.49L963.169 925.396Z" fill="#10DD6F"/>
<path d="M891.34 919.827L880.207 942.088L868.222 964.553L867.981 965.001L853.528 956.975L868.107 939.331L871.125 933.298L871.205 933.231L875.652 929.526L885.661 916.041L891.34 919.827Z" fill="#10DD6F"/>
<path d="M812.457 956.375L808.598 963.499L799.25 957.659L798.549 962.571H791.947L791.811 962.461L788.468 959.788L788.458 959.8C788.427 959.377 788.395 958.952 788.364 958.525C787.997 953.411 787.662 948.16 787.475 943.831L788.638 941.882L812.457 956.375Z" fill="#FF003F"/>
<path d="M776.243 960.57L774.886 962.977L768.358 961.972L768.989 960.758L765.109 958.412L768.093 954.684L776.243 960.57Z" fill="#9F7FFF"/>
<path d="M776.83 938.643L772.351 946.11L772.68 946.384L779.936 952.43C779.966 952.905 779.996 953.382 780.027 953.861L776.737 959.693L767.907 953.316L767.609 953.688L764.246 957.891L736.704 941.243L751.909 921.325L776.83 938.643Z" fill="#FF003F"/>
<path d="M1072.51 938.343L1057.65 954.577L1042.46 944.714L1054.63 926.56L1072.51 938.343Z" fill="#9F7FFF"/>
<path d="M1014.31 938.172L1005.15 953.3L999.296 949.395L991.138 951.248L1001.5 928.854L1014.31 938.172Z" fill="#9F7FFF"/>
<path d="M944.775 908.978L949.507 901.645L917.391 953.173L926.268 938.288L891.961 918.588L891.791 918.926L886.258 915.237L892.848 906.36L893.106 906.011L901.273 910.463L906.509 899.997L906.956 900.22L914.033 903.757L916.271 900.027L924.569 903.798L928.072 899.599L928.344 899.271L944.775 908.978Z" fill="#10DD6F"/>
<path d="M871.895 930.475L853.659 952.992L835.194 941.633L847.979 917.663L871.895 930.475Z" fill="#FF033F"/>
<path d="M1000.64 928.333L989.905 951.528L989.32 951.661L974.258 945.114L974.434 944.666L983.697 920.949L1000.64 928.333Z" fill="#9F7FFF"/>
<path d="M779.342 936.4C779.327 936.916 779.32 937.453 779.32 937.991C779.32 939.664 779.378 941.701 779.473 943.942C779.565 946.132 779.696 948.548 779.849 951.056L773.648 945.89L779.342 936.4Z" fill="#9F7FFF"/>
<path d="M1053.8 926.01L1041.62 944.17L1030.8 937.146L1034.41 931.243L1035.59 930.8L1043.48 919.206L1053.8 926.01Z" fill="#9F7FFF"/>
<path d="M805.804 911.188L787.402 942C787.349 940.475 787.32 939.122 787.32 937.991C787.32 936.376 787.383 935.503 787.436 935.216C787.85 932.938 788.697 930.794 789.478 929.177C789.862 928.38 790.217 927.739 790.469 927.308C790.594 927.093 790.694 926.932 790.757 926.831C790.78 926.795 790.798 926.766 790.811 926.746L803.019 909.306L805.804 911.188Z" fill="#FF003F"/>
<path d="M832.676 929.356L827.226 939.577L826.837 941.225L821.021 937.68L828.662 926.643L832.676 929.356Z" fill="#FF003F"/>
<path d="M781.447 927.539C780.713 929.306 779.989 931.449 779.564 933.784C779.541 933.915 779.519 934.051 779.499 934.194L777.346 937.784L752.517 920.53L757.604 913.864L781.447 927.539Z" fill="#FF003F"/>
<path d="M827.834 926.083L820.166 937.158L814.503 933.706L822.348 922.374L827.834 926.083Z" fill="#FF003F"/>
<path d="M1029.96 936.601L1027.08 934.726C1027.21 934.635 1027.35 934.55 1027.48 934.473C1029.27 933.453 1031.35 932.505 1032.85 931.87L1029.96 936.601Z" fill="#9F7FFF"/>
<path d="M821.52 921.814L813.647 933.185L807.498 929.436L815.562 917.787L821.52 921.814Z" fill="#FF003F"/>
<path d="M1091.26 917.861L1077.98 932.367L1059.09 919.916L1069.63 904.2L1091.26 917.861Z" fill="#9F7FFF"/>
<path d="M1009.11 914.65L1011.59 911.672L1029.89 924.438C1028.14 925.171 1025.69 926.284 1023.52 927.527C1021.63 928.602 1020.03 930.083 1018.88 931.332C1018.83 931.386 1018.78 931.441 1018.73 931.495L1005 921.508L998.924 918.859L1003.05 910.982L1009.11 914.65Z" fill="#9F7FFF"/>
<path d="M885.604 912.249L879.428 921.17L879.417 921.186L879.405 921.2L872.534 929.684L848.449 916.78L858.414 898.099L859.441 896.644L885.604 912.249Z" fill="#FFFF7F"/>
<path d="M814.734 917.227L806.643 928.915L799.12 924.329L806.634 911.75L814.734 917.227Z" fill="#FF003F"/>
<path d="M824.252 912.348L819.586 919.219L820.414 919.781L825.087 912.9L837.184 920.905L833.149 928.469L803.592 908.486L808.285 901.781L824.252 912.348Z" fill="#FF033F"/>
<path d="M789.712 914.363L784.223 922.206L784.197 922.243L784.172 922.281L786.379 923.753C784.214 922.31 784.171 922.282 784.171 922.282L784.17 922.284L784.168 922.287C784.166 922.289 784.164 922.292 784.162 922.295C784.158 922.301 784.154 922.308 784.148 922.316C784.138 922.332 784.124 922.352 784.108 922.377C784.076 922.427 784.034 922.494 783.981 922.577C783.877 922.744 783.734 922.978 783.562 923.271C783.221 923.855 782.763 924.683 782.272 925.698C782.133 925.987 781.991 926.293 781.847 926.615L758.217 913.062L758.766 912.345L758.767 912.343L768.323 899.958L789.712 914.363Z" fill="#9F7FFF"/>
<path d="M1025.92 910.478L1032.87 912.215L1036.8 914.804L1030.69 923.779L1019.33 915.85L1024.43 910.409L1025.92 910.478Z" fill="#9F7FFF"/>
<path d="M841.86 912.136L837.656 920.018L825.649 912.072L830.78 904.519L841.86 912.136Z" fill="#FF003F"/>
<path d="M1068.79 903.666L1058.25 919.366L1048.73 913.087L1058.64 897.26L1068.79 903.666Z" fill="#9F7FFF"/>
<path d="M1002.19 910.463L998.004 918.458L986.61 913.491L990.546 903.415L1002.19 910.463Z" fill="#9F7FFF"/>
<path d="M1106.81 900.175L1093.7 915.203L1091.95 917.112L1075.7 906.854L1088.42 888.198L1106.81 900.175Z" fill="#9F7FFF"/>
<path d="M1014.09 909.94L1023.11 910.35L1018.5 915.271L1011.41 910.327L1008.89 913.35L990.915 902.47L993.875 894.893L1014.09 909.94Z" fill="#9F7FFF"/>
<path d="M798.069 902.425L790.572 913.134L769.241 898.769L777.405 888.189L798.069 902.425Z" fill="#9F7FFF"/>
<path d="M1057.8 896.726L1047.89 912.536L1036.51 905.036L1046.5 889.594L1057.8 896.726Z" fill="#9F7FFF"/>
<path d="M986.109 906.864L984.084 912.329L952.6 896.854L955.776 891.931L986.109 906.864Z" fill="#9F7FFF"/>
<path d="M829.956 903.951L824.814 911.52L808.859 900.961L814.301 893.188L829.956 903.951Z" fill="#FF003F"/>
<path d="M898.119 896.4L893.667 903.188L893.646 903.221L893.619 903.25L886.18 911.429L860.02 895.824L874.853 874.827L898.119 896.4Z" fill="#FFFF7F"/>
<path d="M848.165 900.313L842.334 911.247L831.343 903.69L838.262 893.505L848.165 900.313Z" fill="#9F7FFF"/>
<path d="M1178.26 888.744L1159.14 906.622L1138.41 883.595L1157.63 866.88L1178.26 888.744Z" fill="#808080"/>
<path d="M1087.59 887.652L1074.86 906.319L1063.73 899.288L1075.95 880.075L1087.59 887.652Z" fill="#9F7FFF"/>
<path d="M1000.31 868.556L986.459 905.923L956.321 891.086L958.598 887.559L960.176 886.968L960.353 886.902L964.441 879.235L964.5 879.125V877.839L976.084 858.685L1000.31 868.556Z" fill="#10DD6F"/>
<path d="M1047.38 886.394L1035.57 904.646L1027.08 902.522L1016.9 902.059L996.893 887.167L1005.15 866.04L1005.15 866.036L1008.81 856.87L1047.38 886.394Z" fill="#9F7FFF"/>
<path d="M837.437 892.938L830.518 903.124L821.606 896.997L828.543 886.823L837.437 892.938Z" fill="#9F7FFF"/>
<path d="M810.906 884.085L798.929 901.196L778.322 887L778.992 886.134L791.311 869.715L810.906 884.085Z" fill="#9F7FFF"/>
<path d="M856.483 886.967L851.733 893.692L851.589 893.896L851.471 894.117L848.639 899.426L822.509 881.462L831.236 868.994L856.483 886.967Z" fill="#9F7FFF"/>
<path d="M1075.12 879.528L1062.88 898.754L1059.17 896.413L1071.31 877.048L1075.12 879.528Z" fill="#9F7FFF"/>
<path d="M827.719 886.257L820.782 896.431L814.874 892.369L821.936 882.281L827.719 886.257Z" fill="#9F7FFF"/>
<path d="M1070.47 876.502L1058.33 895.879L1047.05 888.755L1048.18 887.003L1048.7 887.397L1049.3 886.603L1048.73 886.16L1050.57 883.304L1050.7 883.397L1051.3 882.603L1051.12 882.461L1059.57 869.402L1070.47 876.502Z" fill="#9F7FFF"/>
<path d="M915.806 869.438L898.675 895.554L875.435 874.004L890.844 852.19L915.806 869.438Z" fill="#FFFF7F"/>
<path d="M1130.84 876.934L1113.58 893.823L1113.07 894.295L1113.06 894.308L1113.04 894.318L1112.79 894.521L1097.95 884.855L1111.07 864.144L1130.84 876.934Z" fill="#9F7FFF"/>
<path d="M1201.49 870.373L1201.8 870.702L1186.52 888.266L1186.17 888.67L1185.28 887.788L1186.91 886.255L1163.67 861.627L1180.01 847.422L1201.49 870.373Z" fill="#9F7FFF"/>
<path d="M963.5 877.765V878.874L959.646 886.099L958.886 886.384L947.205 879.087L949.519 876.002L948.328 874.812L948.011 874.496L951.287 870.402L951.569 870.049L963.5 877.765Z" fill="#9F7FFF"/>
<path d="M867.802 870.944L857.061 886.149L831.81 868.175L842.155 853.396L867.802 870.944Z" fill="#9F7FFF"/>
<path d="M1049.78 882.694L1047.93 885.551L1009.2 855.905L1010.51 852.636L1049.78 882.694Z" fill="#9F7FFF"/>
<path d="M1125.15 840.062L1097.11 884.311L1058.35 859.062L1086.79 815.311L1125.15 840.062Z" fill="#9F7FFF"/>
<path d="M817.002 875.377L811.48 883.266L791.911 868.914L792.478 868.16L797.98 861.11L817.002 875.377Z" fill="#9F7FFF"/>
<path d="M1058.73 868.856L1050.32 881.852L1035.01 870.133L1042.88 858.533L1058.73 868.856Z" fill="#9F7FFF"/>
<path d="M1151.29 856.928L1131.57 876.216L1111.61 863.299L1125.99 840.604L1151.29 856.928Z" fill="#9F7FFF"/>
<path d="M823.449 866.167L817.576 874.557L798.597 860.322L804.472 852.797L823.449 866.167Z" fill="#9F7FFF"/>
<path d="M868.936 869.34L868.38 870.127L842.729 852.576L845.929 848.006L868.936 869.34Z" fill="#9F7FFF"/>
<path d="M1042.05 857.987L1034.22 869.524L1010.89 851.672L1011.42 850.355L1013.65 852.585L1017.54 842.025L1042.05 857.987Z" fill="#9F7FFF"/>
<path d="M922.096 859.849L916.354 868.601L891.421 851.374L896.767 843.808L890.233 839.192L878.502 855.798L853.266 837.523L864.217 821.88L922.096 859.849Z" fill="#FFFF7F"/>
<path d="M877.925 856.614L869.518 868.517L846.507 847.18L852.692 838.343L877.925 856.614Z" fill="#9F7FFF"/>
<path d="M1010.8 837.636L1004.36 854.289L984.189 846.037L983.811 846.963L1004 855.222L1000.87 863.317V867.06L1000.84 867.145L1000.66 867.618L976.608 857.819L983.197 846.926L975.938 842.656L987.1 822.193L1010.8 837.636Z" fill="#10DD6F"/>
<path d="M829.661 857.292L824.023 865.347L805.088 852.007L811.046 844.376L829.661 857.292Z" fill="#9F7FFF"/>
<path d="M939.119 834.282L923.63 857.509L923.631 857.51L922.645 859.013L890.276 837.779L902.582 820.816L902.71 820.907L903.29 820.093L903.169 820.007L906.576 815.312L906.71 815.407L907.29 814.593L907.163 814.502L908.119 813.186L939.119 834.282Z" fill="#FFFF7F"/>
<path d="M1085.95 814.769L1057.52 858.517L1022.51 835.715L1041.42 786.029L1085.95 814.769Z" fill="#9F7FFF"/>
<path d="M835.154 849.445L830.235 856.473L811.663 843.586L817.107 836.612L835.154 849.445Z" fill="#9F7FFF"/>
<path d="M1164.85 843.652L1157.15 851.19L1157.09 851.153L1162.81 842.196L1164.85 843.652Z" fill="#808080"/>
<path d="M1187.92 801.044L1162.54 840.77L1162.29 840.593L1161.71 841.407L1162 841.614L1156.25 850.611L1070.21 795.091L1102.66 746.64L1187.92 801.044Z" fill="#9F7FFF"/>
<path d="M841.824 839.918L835.728 848.626L817.724 835.823L824.3 827.4L841.824 839.918Z" fill="#9F7FFF"/>
<path d="M978.099 836.608L975.075 842.149L971.342 839.954L967.595 846.698L967.151 846.432L963.492 844.237L970.197 832.657L978.099 836.608Z" fill="#9F7FFF"/>
<path d="M969.941 811.016L960.315 826.145L969.331 832.155L962.635 843.722L941.342 830.951L939.674 833.451L937.595 832.036L949.163 816.463C950.79 816.891 952.498 817.109 954.266 816.991C958.632 816.7 962.274 814.168 964.818 811.749C965.677 810.933 966.468 810.073 967.183 809.219L969.941 811.016Z" fill="#9F7FFF"/>
<path d="M1218.6 820.622L1193.17 838.178L1193.1 838.221L1179.21 842.608L1179.31 843.359L1178.06 841.922L1189.26 830.966L1194.65 836.354L1195.35 835.646L1189.97 830.266L1207.24 813.373L1218.6 820.622Z" fill="#808080"/>
<path d="M1171.46 837.183L1165.58 842.941L1163.35 841.352L1167.5 834.868L1171.46 837.183Z" fill="#808080"/>
<path d="M845.938 834.04L842.397 839.098L824.916 826.61L828.434 822.105L845.938 834.04Z" fill="#9F7FFF"/>
<path d="M901.768 820.236L889.439 837.23L864.801 821.067L877.746 803.145L901.768 820.236Z" fill="#9F7FFF"/>
<path d="M1194.35 814.788L1172.21 836.457L1168.04 834.024L1184.57 808.149L1194.35 814.788Z" fill="#808080"/>
<path d="M986.26 821.646L978.578 835.729L970.249 831.565L969.535 831.089L978.653 816.691L986.26 821.646Z" fill="#9F7FFF"/>
<path d="M852.473 824.704L846.512 833.221L829.05 821.315L835.551 812.989L852.473 824.704Z" fill="#9F7FFF"/>
<path d="M934.164 807.747C936.763 809.638 939.899 812.061 943.081 813.875C944.632 814.759 946.33 815.58 948.141 816.163L936.768 831.474L907.88 811.813L907.596 812.206L906.349 813.923L905.991 813.669L918.052 796.506L934.164 807.747Z" fill="#9F7FFF"/>
<path d="M977.815 816.145L968.702 830.534L961.685 825.855L970.78 811.562L977.815 816.145Z" fill="#9F7FFF"/>
<path d="M1030.84 785.869L1013.76 830.009L971.505 802.486L988.396 769.642L1030.84 785.869Z" fill="#9F7FFF"/>
<path d="M857.336 817.757L853.046 823.886L836.167 812.2L840.402 806.776L840.735 806.221L857.336 817.757Z" fill="#9F7FFF"/>
<path d="M905.762 814.732L902.354 819.427L878.331 802.333L881.728 797.631L905.762 814.732Z" fill="#9F7FFF"/>
<path d="M868.439 802.366L857.913 816.941L841.25 805.362L850.397 790.123L868.439 802.366Z" fill="#9F7FFF"/>
<path d="M1247.93 780.606L1247.34 785.914L1253.42 791.989L1251.71 795.408L1251.62 795.479L1225.68 815.647L1212.21 807.052L1234.37 772.86L1247.93 780.606Z" fill="#808080"/>
<path d="M1200.31 808.954L1195.08 814.075L1185.1 807.306L1188.76 801.582L1200.31 808.954Z" fill="#808080"/>
<path d="M917.231 795.934L905.177 813.089L900.691 809.897L912.971 792.961L917.231 795.934Z" fill="#9F7FFF"/>
<path d="M912.149 792.388L899.876 809.317L882.312 796.82L894.438 780.032L912.149 792.388Z" fill="#9F7FFF"/>
<path d="M965.435 796.796L963.477 800.604C962.722 801.966 961.222 804.129 959.307 805.95C957.31 807.848 955.368 808.9 953.734 809.009C952.338 809.102 950.755 808.733 948.909 807.888L954.578 806.994L954.798 806.959L962.264 795.511L965.435 796.796Z" fill="#9F7FFF"/>
<path d="M951.29 802.093L947.355 807.099C947.253 807.042 947.148 806.984 947.044 806.925C944.358 805.393 941.75 803.372 938.853 801.265L938.821 801.242L936.275 799.466L940.42 793.939L951.29 802.093Z" fill="#9F7FFF"/>
<path d="M961.319 795.127L954.202 806.04L948.79 806.895L952.709 801.907L952.3 801.6L949.577 799.558L954.772 792.474L961.319 795.127Z" fill="#9F7FFF"/>
<path d="M1220.37 779.748L1205.46 802.748L1194.05 795.468L1209.41 773.284L1208.59 772.716L1193.21 794.93L1183.51 788.744L1199.22 766.061L1220.37 779.748Z" fill="#9F7FFF"/>
<path d="M874.172 794.429L869.024 801.556L850.912 789.265L855.81 781.106L874.172 794.429Z" fill="#9F7FFF"/>
<path d="M949.717 790.412L949.762 790.442L949.812 790.463L953.816 792.086L948.776 798.957L941.02 793.14L945.331 787.391L949.717 790.412Z" fill="#9F7FFF"/>
<path d="M944.507 786.823L935.454 798.893L923.048 790.237L929.63 776.574L944.507 786.823Z" fill="#9F7FFF"/>
<path d="M1388.78 783.095L1359.09 798.688L1358.83 798.439L1323.1 764.207L1312.63 767.945L1306.84 762.982L1321.67 739.546L1388.78 783.095Z" fill="#9F7FFF"/>
<path d="M969.577 788.739L965.893 795.903L950.735 789.759L954.822 783.156L969.577 788.739Z" fill="#9F7FFF"/>
<path d="M1076.14 761.701L1080.75 754.643L1091.16 762.019L1069.37 794.549L1044.43 778.452L1056.73 748.443L1076.14 761.701Z" fill="#9F7FFF"/>
<path d="M878.15 788.92L874.758 793.618L856.312 780.235L859.086 775.151L878.15 788.92Z" fill="#9F7FFF"/>
<path d="M970.188 750.158L962.551 768.775L949.851 789.29L930.069 775.663L947.681 739.109L970.188 750.158Z" fill="#9F7FFF"/>
<path d="M1198.38 765.518L1182.67 788.206L1158.37 772.696L1173.23 749.243L1198.38 765.518Z" fill="#9F7FFF"/>
<path d="M884.483 780.151L878.736 788.109L859.569 774.266L864.349 765.508L884.483 780.151Z" fill="#9F7FFF"/>
<path d="M976.414 775.447L970.038 787.844L955.358 782.29L962.858 770.176L976.414 775.447Z" fill="#9F7FFF"/>
<path d="M917.315 783.702L916.401 785.601L892.562 768.968L891.443 770.515L888.19 767.912L890.607 764.689L917.315 783.702Z" fill="#9F7FFF"/>
<path d="M1045.81 748.389L1031.54 784.037L1031.2 784.937L988.812 768.73L997.573 745.852L1006.06 733.203L1045.81 748.389Z" fill="#9F7FFF"/>
<path d="M936.412 744.066L917.756 782.788L890.393 763.31L887.1 767.7L886.81 768.088L890.857 771.326L885.068 779.341L864.831 764.623L865.094 764.143L886.551 719.81L936.412 744.066Z" fill="#9F7FFF"/>
<path d="M1261.76 770.884L1248.15 779.578L1234.92 772.02L1243.16 759.31L1261.76 770.884Z" fill="#9F7FFF"/>
<path d="M1234.44 758.046L1220.92 778.908L1191.27 759.726L1204.48 739.223L1234.44 758.046Z" fill="#9F7FFF"/>
<path d="M1412.25 769.333L1403.63 775.294L1403.61 775.308L1396.9 778.828L1388.16 773.157L1397.14 759.685L1412.25 769.333Z" fill="#9F7FFF"/>
<path d="M983.298 760.757L981.344 765.862L976.874 774.553L963.395 769.311L963.425 769.263L963.447 769.228L969.229 755.13L983.298 760.757Z" fill="#9F7FFF"/>
<path d="M1426.78 757.274L1413.42 768.523L1413.4 768.537L1413.14 768.717L1397.27 758.579L1396.86 758.314L1387.32 772.612L1366.33 758.988L1384.09 730.147L1426.78 757.274Z" fill="#9F7FFF"/>
<path d="M1185.82 727.499L1157.53 772.159L1069.82 716.189L1076.58 698.468L1113.73 722.42L1114.14 722.688L1114.42 722.275L1132.94 694.271L1185.82 727.499Z" fill="#9F7FFF"/>
<path d="M1276.09 760.869L1274.93 762.433L1274.88 762.507L1262.69 770.288L1243.7 758.47L1252.12 745.49L1276.09 760.869Z" fill="#9F7FFF"/>
<path d="M1101.82 746.103L1091.72 761.187L1081.3 753.805L1090.88 739.123L1101.82 746.103Z" fill="#9F7FFF"/>
<path d="M1082.43 750.23L1080.48 753.226L1080.29 753.092L1079.71 753.908L1079.93 754.063L1075.86 760.299L1057.12 747.497L1061.53 736.728L1082.43 750.23Z" fill="#9F7FFF"/>
<path d="M1289.24 743.126L1276.69 760.064L1252.66 744.651L1263.62 727.753L1289.24 743.126Z" fill="#9F7FFF"/>
<path d="M989.095 745.621L983.655 759.824L969.609 754.205L975.19 740.601L989.095 745.621Z" fill="#9F7FFF"/>
<path d="M1196.5 734.208L1186.81 748.114L1194.11 753.47L1190.43 759.184L1173.76 748.398L1186.67 728.031L1196.5 734.208Z" fill="#9F7FFF"/>
<path d="M1381.94 731.721L1365.49 758.443L1354.37 751.233L1371.15 724.21L1381.94 731.721Z" fill="#9F7FFF"/>
<path d="M1456.62 714.557L1444.31 725.954L1451.29 734.394L1427.69 756.51L1427.68 756.519L1427.67 756.527L1427.58 756.6L1384.61 729.295L1418.71 673.915L1456.62 714.557Z" fill="#9F7FFF"/>
<path d="M1299.9 725.424L1289.58 741.732L1290.42 742.268L1300.74 725.969L1318.68 737.611L1308.4 753.829L1290.09 742.846L1290.26 742.571L1278.21 735.343L1289.48 718.663L1299.9 725.424Z" fill="#9F7FFF"/>
<path d="M1203.64 738.691L1194.66 752.627L1188.19 747.885L1197.35 734.741L1203.64 738.691Z" fill="#9F7FFF"/>
<path d="M1266.21 709.04L1238.79 751.333L1191.63 721.698L1219.09 679.657L1266.21 709.04Z" fill="#9F7FFF"/>
<path d="M1383 642.604C1394.25 651.09 1410.62 666.118 1418 673.168L1382.47 730.869L1370.85 722.789L1367.99 727.395L1341.28 709.584L1340.72 710.416L1367.47 728.244L1353.54 750.688L1325.94 732.785L1383 642.604Z" fill="#9F7FFF"/>
<path d="M1090.04 738.585L1082.98 749.393L1061.91 735.786L1066.83 723.777L1090.04 738.585Z" fill="#9F7FFF"/>
<path d="M993.141 694.211L970.568 749.23L948.115 738.208L973.08 686.396L993.141 694.211Z" fill="#9F7FFF"/>
<path d="M1058.73 719.765L1046.52 746.617L1046.18 747.46L1024.21 739.068L1035.63 710.764L1058.73 719.765Z" fill="#9F7FFF"/>
<path d="M1007.75 716.329L990.427 742.147L989.453 744.687L975.57 739.674L988.123 709.078L1007.75 716.329Z" fill="#9F7FFF"/>
<path d="M948.329 719.333L936.846 743.167L886.986 718.91L887.556 717.736L898.09 695.797L948.329 719.333Z" fill="#9F7FFF"/>
<path d="M1028.13 726.679L1023.28 738.711L1006.63 732.352L1014.3 720.917L1028.13 726.679Z" fill="#9F7FFF"/>
<path d="M1288.64 718.118L1277.35 734.827L1264.16 726.914L1275.42 709.544L1288.64 718.118Z" fill="#9F7FFF"/>
<path d="M1463.8 722.255V722.664L1452.02 733.708L1445.69 726.046L1457.3 715.288L1463.8 722.255Z" fill="#9F7FFF"/>
<path d="M1342.54 699.976L1322.97 730.854L1305.02 719.209L1324.57 688.323L1342.54 699.976Z" fill="#9F7FFF"/>
<path d="M1034.69 710.4L1028.5 725.751L1014.87 720.07L1024.07 706.362L1024.1 706.274L1034.69 710.4Z" fill="#9F7FFF"/>
<path d="M1132.09 693.738L1113.86 721.312L1076.94 697.514L1088.77 666.523L1132.09 693.738Z" fill="#9F7FFF"/>
<path d="M1312.39 705.697L1304.18 718.664L1291.88 710.684L1300.71 698.064L1312.39 705.697Z" fill="#9F7FFF"/>
<path d="M965.604 683.482L948.764 718.432L898.522 694.895L913.71 663.265L965.604 683.482Z" fill="#9F7FFF"/>
<path d="M1203.58 688.781L1184.85 717.441L1163.67 704.132L1177.88 682.697L1178.23 682.922L1178.77 682.078L1178.43 681.864L1183.17 674.721L1203.58 688.781Z" fill="#9F7FFF"/>
<path d="M1016.48 703.306L1008.32 715.476L988.503 708.153L994.073 694.574L1016.48 703.306Z" fill="#9F7FFF"/>
<path d="M1480.22 677.27L1491.41 691.436L1491.67 691.759L1491.4 692.071L1486.9 697.313L1486.89 697.331L1486.87 697.347L1468.28 715.329L1453.65 699.64L1479.32 674.867L1480.22 677.27Z" fill="#9F7FFF"/>
<path d="M1069.18 693.205L1061.96 712.438L1048.85 707.33L1055.88 687.813L1069.18 693.205Z" fill="#9F7FFF"/>
<path d="M1299.88 697.518L1291.04 710.14L1279.78 702.831L1288.18 689.869L1299.88 697.518Z" fill="#9F7FFF"/>
<path d="M1283.25 682.769L1266.76 708.202L1219.64 678.82L1236.1 653.622L1283.25 682.769Z" fill="#9F7FFF"/>
<path d="M1054.95 687.437L1047.92 706.967L1040.01 703.886L1047.08 684.247L1054.95 687.437Z" fill="#9F7FFF"/>
<path d="M1323.73 687.778L1312.92 704.852L1288.72 689.03L1299.66 672.17L1323.73 687.778Z" fill="#9F7FFF"/>
<path d="M1177.03 682.161L1162.82 703.6L1138.88 688.561L1153.17 667.015L1177.03 682.161Z" fill="#9F7FFF"/>
<path d="M1046.15 683.871L1039.08 703.522L1027 698.817L1034.63 679.201L1046.15 683.871Z" fill="#9F7FFF"/>
<path d="M1342.58 618.152C1342.95 618.23 1343.3 618.313 1343.61 618.402C1344.45 618.643 1344.79 618.836 1344.78 618.828L1344.93 618.927L1345.08 619.012C1352.18 622.882 1368.82 632.452 1380.21 640.561L1343.08 699.13L1300.2 671.33L1309.19 657.46L1315.16 661.187L1342.58 618.152Z" fill="#9F7FFF"/>
<path d="M1477.96 671.263L1477.99 671.305L1478.94 673.847L1452.97 698.908L1450.76 696.544L1477.94 671.236L1477.96 671.263Z" fill="#9F7FFF"/>
<path d="M1026.12 679.014L1019.55 695.913L1002.5 689.271L1008.93 672.262L1026.12 679.014Z" fill="#9F7FFF"/>
<path d="M1434.59 642.993V645.012L1474.02 665.092L1474.14 665.154L1474.21 665.272L1477.4 670.372L1450.08 695.812L1423.92 667.771L1423.85 667.688L1423.76 667.609C1422.59 666.482 1421.15 665.128 1419.53 663.61L1433.56 642.56L1434.59 642.993Z" fill="#9F7FFF"/>
<path d="M1506.69 678.938L1495.49 693.332L1486.04 680.03L1486.4 680.303L1488.01 678.175L1494.6 683.881L1491.61 687.691L1492.39 688.309L1502.47 675.488L1506.69 678.938Z" fill="#9F7FFF"/>
<path d="M1084.41 652.591L1069.53 692.27L1056.22 686.873L1056.47 686.178L1071.28 647.158L1084.41 652.591Z" fill="#808080"/>
<path d="M1008 671.896L1001.57 688.907L996.156 686.799L1002.71 669.816L1008 671.896Z" fill="#9F7FFF"/>
<path d="M1165.67 646.347L1152.88 665.646L1152.77 665.578L1152.23 666.422L1152.32 666.479L1138.04 688.028L1114.79 673.421L1142.15 631.682L1165.67 646.347Z" fill="#9F7FFF"/>
<path d="M1212.3 675.424L1204.12 687.943L1183.72 673.888L1191.36 662.364L1212.3 675.424Z" fill="#9F7FFF"/>
<path d="M1061.42 670.311L1055.53 685.822L1056 686L1055.53 685.831L1055.29 686.497L1047.42 683.307L1047.47 683.169L1046.53 682.831L1046.49 682.931L1035 678.271L1041.18 662.389L1061.42 670.311Z" fill="#9F7FFF"/>
<path d="M1004.52 662.35L995.225 686.437L981.104 680.936L990.389 656.88L1004.52 662.35Z" fill="#9F7FFF"/>
<path d="M1501.69 674.856L1495.22 683.094L1488.62 677.377L1494.8 669.241L1501.69 674.856Z" fill="#9F7FFF"/>
<path d="M1299.82 657.217L1283.79 681.929L1236.65 652.784L1252.98 627.778L1299.82 657.217Z" fill="#9F7FFF"/>
<path d="M1190.51 661.835L1177.59 681.328L1153.72 666.183L1166.52 646.876L1190.51 661.835Z" fill="#9F7FFF"/>
<path d="M989.456 656.519L980.172 680.572L966.052 675.07L975.324 651.048L989.456 656.519Z" fill="#9F7FFF"/>
<path d="M1494.03 668.608L1485.71 679.56L1476.96 667.25L1483.88 660.329L1494.03 668.608Z" fill="#9F7FFF"/>
<path d="M1038.46 647.311L1026.49 678.081L1003.07 668.883L1014.98 638.037L1038.46 647.311Z" fill="#9F7FFF"/>
<path d="M977.258 643.259L974.751 649.755L974.181 649.534L973.819 650.466L974.391 650.687L965.12 674.707L948.768 668.337L955.468 650.441L971.827 656.469L972.173 655.531L955.818 649.506L960.474 637.075L977.258 643.259Z" fill="#9F7FFF"/>
<path d="M1137.35 588L1222.56 643.307L1225.25 655.608L1212.85 674.587L1141.85 630.317L1113.94 672.889L1090.52 658.173L1092.01 646.752L1092.02 646.696L1092.04 646.645L1107.48 604.572L1115.95 607.852L1117.75 605.325L1117.76 605.324L1117.76 605.322C1117.76 605.322 1117.76 605.319 1117.76 605.316C1117.76 605.312 1117.77 605.306 1117.77 605.298C1117.79 605.282 1117.8 605.259 1117.82 605.23C1117.86 605.173 1117.92 605.09 1118 604.983C1118.15 604.77 1118.36 604.463 1118.62 604.079C1119.15 603.311 1119.87 602.23 1120.68 600.971C1122.27 598.49 1124.27 595.172 1125.64 592.155L1126.23 590.854L1131.62 588H1137.35Z" fill="#9F7FFF"/>
<path d="M1066.7 656.419L1061.78 669.375L1041.54 661.456L1046.57 648.541L1066.7 656.419Z" fill="#9F7FFF"/>
<path d="M1483.1 659.694L1476.37 666.424L1474.9 664.362L1472.38 661.84L1472.64 661.493L1477.45 655.086L1483.1 659.694Z" fill="#9F7FFF"/>
<path d="M949.63 643.222L941.313 665.432L918.234 656.44L918.75 631.171L949.63 643.222Z" fill="#9F7FFF"/>
<path d="M1423.1 636.649L1423.35 636.795V638.248L1432.62 642.163L1418.79 662.919C1415.21 659.593 1410.82 655.578 1406.2 651.504L1417.44 633.349L1423.1 636.649Z" fill="#9F7FFF"/>
<path d="M1014.05 637.669L1004.88 661.418L990.749 655.947L999.952 632.104L1014.05 637.669Z" fill="#9F7FFF"/>
<path d="M1322.67 647.533L1314.84 659.813L1309.74 656.621L1317.81 644.169L1322.67 647.533Z" fill="#9F7FFF"/>
<path d="M1276.67 591.528C1283.26 595.867 1291.07 600.758 1296.71 603.578C1303.6 607.021 1317.6 611.728 1327.84 614.855C1326.98 615.798 1326.16 616.814 1325.4 617.807C1323.5 620.31 1321.83 622.966 1321.05 624.47L1300.36 656.378L1253.53 626.942L1276.67 591.528Z" fill="#9F7FFF"/>
<path d="M999.021 631.735L989.815 655.586L975.684 650.116L984.926 626.169L999.021 631.735Z" fill="#9F7FFF"/>
<path d="M1103.07 602.86L1084.76 651.653L1070.72 645.841L1070.53 646.322L1067.05 655.483L1046.93 647.608L1062.26 608.214L1095.32 620.967L1095.68 620.033L1062.62 607.281L1069.41 589.824L1103.07 602.86Z" fill="#9F7FFF"/>
<path d="M1131.81 553.424C1136.27 553.521 1141.12 554.703 1144.18 555.775L1144.22 555.79L1144.26 555.804C1151.5 558.159 1171.01 564.151 1191.51 569.376C1211.72 574.527 1250 582.017 1267.42 585.272C1268.19 585.81 1269.06 586.415 1270.02 587.071L1226.01 654.436L1223.44 642.692L1137.77 587.081L1137.65 587H1131.38L1131.27 587.059L1126.09 589.797L1125.62 588.794C1119.34 575.483 1117.96 569.505 1118.24 566.007C1118.36 564.441 1118.84 563.23 1119.68 561.807C1120.13 561.048 1120.65 560.273 1121.3 559.312C1121.94 558.38 1122.67 557.305 1123.41 556.086C1124.4 554.465 1127.04 553.32 1131.81 553.424Z" fill="#9F7FFF"/>
<path d="M1414.17 631.438L1416.58 632.845L1405.44 650.835C1400 646.047 1394.31 641.223 1389.34 637.386L1402.34 620.178L1414.17 631.438Z" fill="#9F7FFF"/>
<path d="M1331.68 633.396L1323.21 646.689L1318.35 643.33L1326.58 630.647L1331.68 633.396Z" fill="#9F7FFF"/>
<path d="M983.995 625.802L977.617 642.326L960.824 636.139L967.182 619.162L983.995 625.802Z" fill="#9F7FFF"/>
<path d="M976.338 571.898L949.98 642.285L918.772 630.105L918.97 620.457L939.941 587.513V557.572L976.338 571.898Z" fill="#03BFFF"/>
<path d="M1061.95 586.936L1041.36 639.854L991.07 619.994L1011.27 567.302L1061.95 586.936Z" fill="#9F7FFF"/>
<path d="M1376.78 596.314L1376.79 596.318L1390.99 612.753L1397.21 617.592L1397.99 616.035L1401.61 619.483L1388.55 636.777C1388.12 636.451 1387.7 636.133 1387.29 635.822L1394.53 624.374L1364.77 584.213L1365.55 583.584L1376.78 596.314Z" fill="#9F7FFF"/>
<path d="M1390.51 624.31L1384.5 633.796C1374.45 626.68 1360.82 618.653 1352.62 614.045L1370.57 600.687L1390.51 624.31Z" fill="#9F7FFF"/>
<path d="M1336.12 618.155C1336.93 617.798 1338.68 617.615 1340.89 617.873C1341.1 617.898 1341.31 617.929 1341.52 617.96L1332.22 632.55L1327.12 629.806L1327.86 628.676L1327.98 628.488L1328.08 628.289C1328.52 627.404 1329.97 625.016 1331.77 622.644C1332.66 621.475 1333.57 620.395 1334.42 619.547C1335.32 618.636 1335.91 618.252 1336.12 618.155Z" fill="#9F7FFF"/>
<path d="M1010.34 566.94L990.141 619.627L969.988 611.669L989.728 558.957L1010.34 566.94Z" fill="#9F7FFF"/>
<path d="M1220.62 459.86L1220.8 459.867L1220.93 459.986L1267.75 501.591L1275.24 493.357L1341.88 551.644L1341.6 552.014L1324.66 574.844L1348.52 594.364L1351.99 587.436L1352.08 587.251L1354.87 586.323L1355.08 586.607L1366.77 601.938L1369.74 599.706L1369.92 599.92L1351.66 613.51C1350.67 612.955 1349.77 612.458 1348.99 612.03C1348.02 611.434 1346.85 611.008 1345.81 610.71C1344.6 610.365 1343.22 610.092 1341.81 609.927C1340.81 609.809 1339.68 609.734 1338.51 609.755L1338.54 609.638C1329.88 607.307 1308.7 600.625 1300.29 596.422C1291.79 592.172 1277.48 582.569 1271.3 578.228L1270.59 577.727L1269.73 577.567C1253.15 574.479 1215.72 567.171 1195.07 562.022L1213.69 533.863L1173.19 506.36L1203.75 459.157L1220.62 459.86Z" fill="#9F7FFF"/>
<path d="M1120.42 548.044C1118.93 548.989 1117.61 550.247 1116.59 551.914C1115.96 552.945 1115.33 553.87 1114.68 554.818C1114.06 555.738 1113.39 556.725 1112.79 557.74C1111.54 559.863 1110.51 562.246 1110.26 565.368C1109.81 570.98 1111.96 578.321 1117.57 590.459C1116.5 592.535 1115.16 594.763 1113.95 596.654C1113.61 597.182 1113.28 597.675 1112.99 598.124L1110.24 597.062L1113.71 587.628L1110.76 575.12L1102.39 561.161L1113.16 543.206L1120.42 548.044Z" fill="#9F7FFF"/>
<path d="M1066.67 511.712L1066.7 511.748L1066.73 511.789L1084.7 544.737L1084.77 544.849V550.814L1091.96 561.604L1093.85 560.977L1094.2 560.856L1105.7 577.705L1105.72 577.777L1108.71 587.513L1108.76 587.676L1108.7 587.835L1105.88 595.37L1030.93 566.34L1053.13 508.276L1059.62 503.092L1066.67 511.712Z" fill="#9F7FFF"/>
<path d="M982.267 556.067L976.688 570.962L939.941 556.498V539.672L982.267 556.067Z" fill="#03BFFF"/>
<path d="M1045.42 507.796L1051.71 509.193L1030 565.979L988.255 549.808L1003.71 509.397L1017.45 516.629L1021.69 510.979L1021.76 510.885L1024.95 509.291L1025.05 509.283L1045.28 507.785L1045.35 507.78L1045.42 507.796Z" fill="#9F7FFF"/>
<path d="M1139.02 428.654L1136.7 431.736L1183.76 456.728L1186.73 453.023L1202.62 459.074L1171.81 506.639L1172.22 506.914L1212.31 534.137L1194.05 561.765C1193.86 561.717 1193.67 561.671 1193.49 561.624C1173.19 556.449 1153.84 550.508 1146.74 548.196C1143.13 546.943 1137.47 545.545 1131.99 545.426C1128.66 545.354 1124.7 545.746 1121.38 547.486L1112.84 541.793L1101.8 560.189L1099.57 556.466L1099.5 556.348V552.646L1095.87 548.292L1095.82 548.236L1095.79 548.169L1086.78 527.141L1086.77 527.075L1086.03 521.955L1051.4 474.536L1052.9 473.035L1045.66 462.896L1045.44 462.601L1073.38 424.867L1073.65 424.496L1079.73 428.294L1092.04 418.157L1092.76 413.851L1092.86 413.273L1139.02 428.654Z" fill="#9F7FFF"/>
<path d="M1002.18 510.584L987.323 549.446L984.643 548.408L999.489 509.578L1002.18 510.584Z" fill="#9F7FFF"/>
<path d="M998.553 509.229L983.711 548.048L939.941 531.093V487.346L998.553 509.229Z" fill="#03BFFF"/>
</svg>
