<svg width="1920" height="1080" viewBox="0 0 1920 1080" fill="none" xmlns="http://www.w3.org/2000/svg">
<path d="M687.353 790.208L676.946 808.503L676.509 808.243L655.863 796.013L665.976 777.992L687.353 790.208Z" fill="#9F7FFF"/>
<path d="M761.092 778.723L740.473 794.183L702.024 772.219L713.433 751.886L761.092 778.723Z" fill="#9F7FFF"/>
<path d="M695.373 776.107L688.094 788.904L666.709 776.684L673.81 764.032L695.373 776.107Z" fill="#9F7FFF"/>
<path d="M780.169 751.983L773.813 769.186L773.695 769.274L762.403 777.74L714.167 750.578L729.426 723.383L780.169 751.983Z" fill="#9F7FFF"/>
<path d="M702.333 761.448L696.819 771.276L697.806 771.83L696.114 774.805L674.543 762.725L681.587 750.173L702.333 761.448Z" fill="#9F7FFF"/>
<path d="M710.116 747.576L703.067 760.139L682.321 748.864L689.589 735.913L710.116 747.576Z" fill="#9F7FFF"/>
<path d="M718.184 733.198L710.85 746.268L690.323 734.604L690.541 734.218L695.844 720.433L718.184 733.198Z" fill="#9F7FFF"/>
<path d="M777.93 699.01L763.147 740.668L730.16 722.074L741.043 702.678L769.626 719.149L770.374 717.851L741.776 701.371L750.732 685.411L777.93 699.01Z" fill="#9F7FFF"/>
<path d="M731.579 709.323L720.631 728.838L697.66 715.712L697.881 715.141L688.442 708.401L697.312 691.017L731.579 709.323Z" fill="#9F7FFF"/>
<path d="M843.167 636.353L821.801 691.228L821.559 691.852L822.15 692.163L838.591 700.84L840.561 717.897L840.58 718.06L840.498 718.202L837.269 723.853L789.2 700.098L789.618 699.264L753.075 680.992L764.304 658.99L793.809 673.742L784.802 696.727L786.198 697.273L814.348 625.441L843.167 636.353Z" fill="#9F7FFF"/>
<path d="M709.107 664.599L685.423 711.019L679.636 717.332L671.073 700.067L693.244 656.667L709.107 664.599Z" fill="#9F7FFF"/>
<path d="M899.656 657.739L899.706 657.863L899.789 658.071L872.722 712.188L872.496 712.64L844.465 698.249L838.37 698.926L838.382 699.034L823.441 691.149L844.571 636.884L899.656 657.739Z" fill="#9F7FFF"/>
<path d="M746.254 683.172L732.313 708.016L713.987 698.226L726.843 673.466L746.254 683.172Z" fill="#9F7FFF"/>
<path d="M691.903 655.996L670.243 698.395L659.681 677.098L674.848 647.469L691.903 655.996Z" fill="#9F7FFF"/>
<path d="M725.501 672.795L712.664 697.518L697.993 689.681L710.448 665.269L725.501 672.795Z" fill="#9F7FFF"/>
<path d="M763.193 650.165L748.603 678.756L731.099 670.004L745.686 641.235L763.193 650.165Z" fill="#9F7FFF"/>
<path d="M802.739 650.951L794.357 672.34L764.985 657.654L775.577 636.901L802.739 650.951Z" fill="#9F7FFF"/>
<path d="M678.502 629.356L656.916 671.523L635.116 627.569L635.006 627.348L642.722 611.693L678.502 629.356Z" fill="#9F7FFF"/>
<path d="M744.35 640.554L729.757 669.333L713.694 661.301L728.35 632.393L744.35 640.554Z" fill="#9F7FFF"/>
<path d="M727.013 631.711L712.353 660.63L697.089 652.998L711.65 623.875L727.013 631.711Z" fill="#9F7FFF"/>
<path d="M710.314 623.193L695.747 652.327L677.127 643.018L692.045 613.874L710.314 623.193Z" fill="#9F7FFF"/>
<path d="M919.63 530.777L924.462 542.632V584.826L924.366 584.958L912.401 601.403L903.487 618.483V650.635L813.891 616.714L824.698 585.274L848.693 527.287L848.711 527.244L848.723 527.2L854.68 505.661L919.63 530.777Z" fill="#9F7FFF"/>
<path d="M812.945 624.91L803.29 649.547L776.259 635.565L786.757 614.995L812.945 624.91Z" fill="#9F7FFF"/>
<path d="M782.368 612.595L763.875 648.829L746.364 639.897L765.356 602.439L782.368 612.595Z" fill="#9F7FFF"/>
<path d="M764.066 601.668L745.027 639.216L729.027 631.055L748.604 592.438L764.066 601.668Z" fill="#9F7FFF"/>
<path d="M747.313 591.667L727.691 630.373L712.321 622.533L732.251 582.674L747.313 591.667Z" fill="#9F7FFF"/>
<path d="M687.166 612.432L679.186 628.021L643.386 610.347L651.125 594.645L687.166 612.432Z" fill="#9F7FFF"/>
<path d="M730.959 581.903L710.984 621.852L692.729 612.539L713.689 571.593L730.959 581.903Z" fill="#9F7FFF"/>
<path d="M853.273 505.117L847.29 526.751L823.307 584.713L823.298 584.734L823.291 584.756L812.487 616.183L789.247 607.384L745.669 581.367L796.287 483.08L853.273 505.117Z" fill="#9F7FFF"/>
<path d="M608.175 577.972L605.33 582.594L603.853 592.196L603.08 615.353L602.415 615.079L568.881 601.341L589.79 566.794L608.175 577.972Z" fill="#808080"/>
<path d="M695.831 595.504L687.85 611.096L651.789 593.299L659.625 577.4L695.831 595.504Z" fill="#9F7FFF"/>
<path d="M588.509 566.015L567.476 600.765L556.721 596.359L556.669 596.338L556.624 596.306L549.133 591.064L549.088 591.033L549.051 590.992L548.949 590.882L570.746 555.215L588.509 566.015Z" fill="#808080"/>
<path d="M709.387 569.023L696.515 594.169L675.909 583.866L689.494 557.148L709.387 569.023Z" fill="#9F7FFF"/>
<path d="M569.465 554.437L547.896 589.732L540.811 582.007L540.749 581.939L540.715 581.854L539.246 578.185L535.822 574.076L553.336 544.63L569.465 554.437Z" fill="#808080"/>
<path d="M688.203 556.377L674.567 583.195L660.288 576.056L660.358 575.915L655.709 573.746L673.306 547.483L688.203 556.377Z" fill="#9F7FFF"/>
<path d="M757.719 554.69L744.378 580.596L717.326 564.445L729.448 540.323L757.719 554.69Z" fill="#9F7FFF"/>
<path d="M651.496 565.659L648.371 570.322L638.776 565.847L633.757 575.166L633.691 575.287L633.574 575.358L629.599 577.742L613.944 570.29L611.24 572.993L610.796 573.714L589.232 560.604L603.86 536.688L651.496 565.659Z" fill="#9F7FFF"/>
<path d="M550.899 538.946L531.619 571.363L525.864 567.823L525.811 567.758L518.892 559.304L518.984 559.038L530.509 526.202L550.899 538.946Z" fill="#808080"/>
<path d="M666.426 543.376L652.332 564.412L636.137 554.562L649.066 533.012L666.426 543.376Z" fill="#9F7FFF"/>
<path d="M725.09 537.862L713.022 561.876L677.555 540.701L689.534 519.629L725.09 537.862Z" fill="#9F7FFF"/>
<path d="M602.579 535.908L587.95 559.824L573.353 550.949L587.974 527.025L602.579 535.908Z" fill="#9F7FFF"/>
<path d="M647.778 532.243L634.854 553.782L620.392 544.986L633.634 523.799L647.778 532.243Z" fill="#9F7FFF"/>
<path d="M769.099 532.594L758.406 553.356L730.122 538.982L740.977 517.38L769.099 532.594Z" fill="#9F7FFF"/>
<path d="M586.692 526.246L572.071 550.17L555.892 540.333L570.226 516.23L586.692 526.246Z" fill="#9F7FFF"/>
<path d="M632.347 523.03L619.11 544.207L604.644 535.408L617.6 514.226L632.347 523.03Z" fill="#9F7FFF"/>
<path d="M579.227 491.316L551.666 537.657L531.018 524.752L533.966 516.355L533.979 516.32L552.028 475.078L579.227 491.316Z" fill="#9F7FFF"/>
<path d="M696.395 491.375L670.683 536.6L648.247 523.205L673.944 478.546L696.395 491.375Z" fill="#9F7FFF"/>
<path d="M736.84 514.48L725.763 536.522L690.276 518.325L702.471 496.877L736.84 514.48Z" fill="#9F7FFF"/>
<path d="M616.312 513.457L603.362 534.628L588.756 525.745L601.624 504.688L616.312 513.457Z" fill="#9F7FFF"/>
<path d="M780.573 510.314L769.785 531.261L741.65 516.04L752.13 495.185L780.573 510.314Z" fill="#9F7FFF"/>
<path d="M600.337 503.92L587.475 524.967L570.992 514.942L583.52 493.879L600.337 503.92Z" fill="#9F7FFF"/>
<path d="M672.642 477.802L646.958 522.436L624.651 509.118L649.927 464.822L672.642 477.802Z" fill="#9F7FFF"/>
<path d="M924.757 502.248L924.456 519.092L918.539 521.779L888.527 510.174L896.029 491.199L924.757 502.248Z" fill="#9F7FFF"/>
<path d="M749.191 489.9L737.514 513.14L703.213 495.57L716.099 472.907L749.191 489.9Z" fill="#9F7FFF"/>
<path d="M894.63 490.661L887.129 509.633L858.646 498.618L863.946 478.859L894.63 490.661Z" fill="#9F7FFF"/>
<path d="M794.879 482.536L781.261 508.98L752.804 493.844L764.407 470.752L794.879 482.536Z" fill="#9F7FFF"/>
<path d="M635.838 486.486L623.363 508.349L587.592 486.993L599.505 465.93L635.838 486.486Z" fill="#9F7FFF"/>
<path d="M886.042 347.619L896.469 352.83L896.872 353.032L868.386 428.716L920.001 463.862L919.241 469.931L925.084 476.501L925.214 476.647L925.211 476.843L924.785 500.651L864.337 477.402L875.188 436.96L867.405 432.829L868.705 429.256L867.295 428.744L866.066 432.119L799.291 396.688L771.717 372.39L808.591 341.048L808.368 340.786L845.325 310.685L886.042 347.619Z" fill="#808080"/>
<path d="M509.528 449.705L489.663 496.432L487.527 494.297L486.78 489.817L479.074 482.885L484.476 475.94L483.753 470.156L483.741 470.065L484.425 467.237L456.392 450.216L456.529 449.832L456.948 448.656L470.24 426.25L509.528 449.705Z" fill="#808080"/>
<path d="M858.37 468.772L851.142 495.716L809.527 479.623L819.592 453.538L858.37 468.772Z" fill="#9F7FFF"/>
<path d="M721.646 446.963L697.136 490.07L674.692 477.246L699.343 434.406L721.646 446.963Z" fill="#9F7FFF"/>
<path d="M759.936 468.52L749.865 488.561L716.841 471.602L728.618 450.889L759.936 468.52Z" fill="#9F7FFF"/>
<path d="M648.624 464.078L636.58 485.185L600.243 464.625L612.294 443.317L648.624 464.078Z" fill="#9F7FFF"/>
<path d="M632.904 396.72L583.299 484.43L555.328 467.73L603.393 382.939L604.153 383.368L605.753 380.523L632.904 396.72Z" fill="#9F7FFF"/>
<path d="M818.215 452.939L808.128 479.082L768.055 463.586L782.886 434.797L818.215 452.939Z" fill="#9F7FFF"/>
<path d="M698.035 433.671L673.39 476.501L650.67 463.519L675.076 420.745L698.035 433.671Z" fill="#9F7FFF"/>
<path d="M865.811 441.04L858.761 467.313L820.132 452.138L831.448 422.807L865.811 441.04Z" fill="#9F7FFF"/>
<path d="M661.259 441.935L649.368 462.774L613.032 442.012L625.08 420.71L661.259 441.935Z" fill="#9F7FFF"/>
<path d="M776.692 435.902L763.565 461.384L732.571 443.935L746.195 419.971L776.692 435.902Z" fill="#9F7FFF"/>
<path d="M830.113 422.099L818.758 451.532L783.572 433.464L798.161 405.145L830.113 422.099Z" fill="#9F7FFF"/>
<path d="M414.639 393.157L414.681 393.08L468.952 425.48L458.576 442.971L443.217 432.412L443 432.263V427.757L433.2 420.399L432.948 420.211L435.43 407.8L400.728 392.921L398.479 404.913L375.811 394.755L380.045 374.154L414.639 393.157Z" fill="#808080"/>
<path d="M531.939 384.114L528.179 405.838L512.688 442.273L474.893 419.71L504.146 368.233L531.939 384.114Z" fill="#FF003F"/>
<path d="M673.769 420.009L662.002 440.632L625.818 419.404L637.139 399.387L673.769 420.009Z" fill="#9F7FFF"/>
<path d="M745.324 400.685L739.382 415.769L725.6 440.009L701.53 426.458L723.501 388.009L745.324 400.685Z" fill="#9F7FFF"/>
<path d="M793.864 402.568L777.38 434.567L746.856 418.623L753.165 402.608L761.948 384.553L766.379 378.349L793.864 402.568Z" fill="#9F7FFF"/>
<path d="M722.204 387.255L700.223 425.722L679.041 413.797L701.161 375.032L722.204 387.255Z" fill="#9F7FFF"/>
<path d="M499.806 365.752L470.598 417.146L450.812 405.333L479.871 354.361L499.806 365.752Z" fill="#9F7FFF"/>
<path d="M689.351 392.703L677.733 413.061L641.077 392.424L652.835 371.636L689.351 392.703Z" fill="#9F7FFF"/>
<path d="M478.569 353.617L449.524 404.564L424.399 389.564L452.905 338.952L478.569 353.617Z" fill="#9F7FFF"/>
<path d="M760.346 373.032L755.05 380.448L745.903 399.25L745.889 399.277L724.245 386.706L741.532 356.454L760.346 373.032Z" fill="#9F7FFF"/>
<path d="M640.786 382.784L633.644 395.414L606.488 379.216L613.45 366.839L640.786 382.784Z" fill="#9F7FFF"/>
<path d="M699.864 374.279L690.095 391.4L653.573 370.33L663.339 353.063L699.864 374.279Z" fill="#9F7FFF"/>
<path d="M466.102 299.224L414.271 391.244L380.36 372.617L387.128 339.698L387.145 339.614L387.189 339.541L420.148 284.877L420.192 284.805L429.218 277.285L436.587 269.305L466.102 299.224Z" fill="#9F7FFF"/>
<path d="M740.383 355.441L722.948 385.952L701.905 373.729L721.723 338.998L740.383 355.441Z" fill="#9F7FFF"/>
<path d="M540.004 343.994L540.921 348.689L540.946 348.818L540.904 348.943L534.924 366.878L532.211 382.542L504.888 366.929L523.46 334.249L540.004 343.994Z" fill="#FF003F"/>
<path d="M653.689 359.971L641.524 381.479L614.186 365.531L626.259 344.065L653.689 359.971Z" fill="#9F7FFF"/>
<path d="M624.962 343.313L605.104 378.617L592.396 371.561L612.569 336.128L624.962 343.313Z" fill="#9F7FFF"/>
<path d="M710.221 356.128L700.607 372.976L664.077 351.758L673.566 334.98L710.221 356.128Z" fill="#9F7FFF"/>
<path d="M611.272 335.376L591.086 370.832L585.882 367.942L585.681 367.831L585.635 367.605L582.965 354.578L598.18 327.784L611.272 335.376Z" fill="#9F7FFF"/>
<path d="M800.612 337.329L765.651 367.045L750.24 353.465L784.687 314.486L800.612 337.329Z" fill="#9F7FFF"/>
<path d="M519.151 331.711L500.546 364.448L453.642 337.646L472.472 304.215L519.151 331.711Z" fill="#9F7FFF"/>
<path d="M663.912 341.896L656.151 355.617L628.711 339.706L636.286 326.241L663.912 341.896Z" fill="#9F7FFF"/>
<path d="M720.573 337.985L710.964 354.825L674.305 333.675L688.067 309.341L720.573 337.985Z" fill="#9F7FFF"/>
<path d="M777.03 249.971L766.535 261.96L780.76 282.915L780.525 283.204L771.024 294.892L783.804 313.221L749.115 352.474L733.139 338.396L770.565 295.493L769.435 294.507L732.014 337.403L714.108 321.626L766.562 262.498L765.438 261.502L761.691 265.725L741.112 247.483L763.612 231.342L777.03 249.971Z" fill="#9F7FFF"/>
<path d="M379.312 329.872L376.841 334.012L371.488 351.595L327.216 344.43L326.781 337.25L357.225 307.785L379.312 329.872Z" fill="#808080"/>
<path d="M602.756 309.6L581.44 347.138L572.9 305.453L572.888 305.394L572.891 305.332L573.399 293.112L602.756 309.6Z" fill="#808080"/>
<path d="M671.912 327.75L664.65 340.59L637.021 324.934L644.18 312.21L671.912 327.75Z" fill="#9F7FFF"/>
<path d="M642.871 311.477L627.414 338.954L615.044 331.781L630.539 304.566L642.871 311.477Z" fill="#9F7FFF"/>
<path d="M531.461 285.391L534.931 318.001L537.956 333.503L476.398 297.243L495.016 264.19L531.461 285.391Z" fill="#9F7FFF"/>
<path d="M629.231 303.834L613.747 331.029L600.649 323.436L615.992 296.415L629.231 303.834Z" fill="#9F7FFF"/>
<path d="M428.933 261.47L404.498 287.685L380.104 328.544L358.303 306.742L417.417 249.525L428.933 261.47Z" fill="#9F7FFF"/>
<path d="M684.234 305.964L672.65 326.444L657.199 317.786L670.622 293.969L684.234 305.964Z" fill="#9F7FFF"/>
<path d="M724.047 308.158L712.982 320.633L692.558 302.636L703.509 290.008L724.047 308.158Z" fill="#9F7FFF"/>
<path d="M669.473 292.956L655.891 317.053L642.375 309.479L657.729 282.607L669.473 292.956Z" fill="#9F7FFF"/>
<path d="M649.244 294.434L641.066 308.746L616.732 295.111L624.932 280.671L649.244 294.434Z" fill="#9F7FFF"/>
<path d="M612.259 292.866L603.497 308.295L573.47 291.431L573.642 287.314L573.652 287.269L577.021 272.674L612.259 292.866Z" fill="#9F7FFF"/>
<path d="M736.035 294.645L725.042 307.036L704.491 288.875L715.422 276.271L736.035 294.645Z" fill="#9F7FFF"/>
<path d="M707.062 278.28L688.807 299.33L675.273 287.405L693.703 266.405L707.062 278.28Z" fill="#9F7FFF"/>
<path d="M391.624 222.771L318.646 294.011L300.865 278.905L375.696 206.25L391.624 222.771Z" fill="#9F7FFF"/>
<path d="M748.25 280.876L737.03 293.522L716.404 275.139L727.681 262.135L748.25 280.876Z" fill="#9F7FFF"/>
<path d="M656.581 281.596L649.988 293.132L625.672 279.368L635.137 262.699L656.581 281.596Z" fill="#9F7FFF"/>
<path d="M488.1 260.167L470.187 291.972L442.021 263.42L447.164 257.851L458.738 243.088L488.1 260.167Z" fill="#9F7FFF"/>
<path d="M631.306 259.323L612.999 291.562L597.539 282.703L617.958 247.562L631.306 259.323Z" fill="#9F7FFF"/>
<path d="M692.581 265.408L674.148 286.413L664.469 277.884L682.885 256.789L692.581 265.408Z" fill="#9F7FFF"/>
<path d="M575.038 209.866L539.356 251.71L533.426 264.308L531.195 282.889L531.265 283.541L495.752 262.883L515.772 227.34L550.68 188.299L575.038 209.866Z" fill="#9F7FFF"/>
<path d="M616.812 246.551L596.237 281.957L577.373 271.147L578.168 267.707L586.462 255.647L586.478 255.625L586.495 255.604L604.01 235.271L616.812 246.551Z" fill="#9F7FFF"/>
<path d="M760.696 266.847L749.246 279.754L728.664 261.002L739.195 248.859L739.862 248.38L760.696 266.847Z" fill="#9F7FFF"/>
<path d="M717.534 266.204L708.044 277.147L683.871 255.66L693.346 244.807L717.534 266.204Z" fill="#9F7FFF"/>
<path d="M681.763 255.793L663.343 276.892L653.531 268.245L672.012 247.125L681.763 255.793Z" fill="#9F7FFF"/>
<path d="M372.226 202.65L297.037 275.653L278.677 260.056L278.263 259.705L292.857 245.114L301.551 234.251L298.123 230.824L297.759 230.461L325.1 204.647L325.118 204.63L325.139 204.614L353.295 183.014L372.226 202.65Z" fill="#9F7FFF"/>
<path d="M670.89 246.128L652.405 267.254L639.686 256.045L658.354 234.985L670.89 246.128Z" fill="#9F7FFF"/>
<path d="M734.265 246.914L718.517 265.071L694.332 243.677L715.707 219.192L734.265 246.914Z" fill="#9F7FFF"/>
<path d="M544.69 182.996L509.229 222.658L488.836 258.86L459.673 241.896L490.579 202.479L516.034 161.316L516.059 161.277L516.089 161.243L517.884 159.261L544.69 182.996Z" fill="#9F7FFF"/>
<path d="M458.427 224.943L445.697 242.002L445.69 242.012L445.683 242.021L435.195 254.751L435.186 254.763L435.175 254.774L434.396 255.609L403.327 223.383L430.595 196.705L458.427 224.943Z" fill="#9F7FFF"/>
<path d="M692.222 243.812L682.749 254.663L659.35 233.863L668.854 223.142L692.222 243.812Z" fill="#9F7FFF"/>
<path d="M658.411 227.387L655.613 230.542L655.498 230.439L654.502 231.561L654.619 231.664L635.935 252.74L623.207 241.524L646.57 216.521L658.411 227.387Z" fill="#9F7FFF"/>
<path d="M753.748 232.266L738.026 243.545L719.39 215.706L735.72 205.556L753.748 232.266Z" fill="#9F7FFF"/>
<path d="M702.92 231.558L693.208 242.683L669.85 222.02L679.421 211.223L702.92 231.558Z" fill="#9F7FFF"/>
<path d="M670.189 214.101L659.405 226.265L633.507 202.499L632.493 203.604L645.466 215.508L622.082 240.533L609.231 229.209L609.717 228.646L609.718 228.646L643.561 189.665L670.189 214.101Z" fill="#9F7FFF"/>
<path d="M776.839 207.02L781.072 212.663L754.969 231.39L741.949 212.102L771.806 192.649L776.839 207.02Z" fill="#9F7FFF"/>
<path d="M714.843 217.901L703.907 230.427L680.417 210.099L697.056 191.331L714.843 217.901Z" fill="#9F7FFF"/>
<path d="M512.374 154.382L505.605 161.9L480.903 194.825L480.904 194.826L459.335 223.728L431.667 195.656L492.155 136.48L512.374 154.382Z" fill="#9F7FFF"/>
<path d="M424.979 191.008L397.774 217.624L359.927 178.365L388.859 161.149L388.896 161.128L388.936 161.113L393.702 159.273L424.979 191.008Z" fill="#9F7FFF"/>
<path d="M734.88 204.312L718.556 214.46L700.658 187.725L716.506 177.091L734.88 204.312Z" fill="#9F7FFF"/>
<path d="M682.824 199.849L671.184 212.979L644.595 188.579L657.778 176.865L682.824 199.849Z" fill="#9F7FFF"/>
<path d="M756.142 201.064L741.11 210.858L717.752 176.255L732.849 166.126L756.142 201.064Z" fill="#9F7FFF"/>
<path d="M634.271 116.193L634.292 116.203L634.312 116.215L652.097 126.264L601.47 179.895L580.273 203.816L555.464 181.85L620.566 110.046L634.271 116.193Z" fill="#9F7FFF"/>
<path d="M774.825 190.149L774.672 190.264L774.091 189.372L757.398 200.246L734.095 165.29L750.62 154.202L774.825 190.149Z" fill="#9F7FFF"/>
<path d="M696.944 184.197L696.342 184.603L696.129 184.842L683.818 198.727L658.904 175.864L664.446 170.94L664.479 170.911L664.518 170.888L681.604 160.419L696.944 184.197Z" fill="#9F7FFF"/>
<path d="M490.441 126.965L426.052 189.959L395.228 158.685L431.062 144.858L425.919 136.777L465.729 101.354L490.441 126.965Z" fill="#9F7FFF"/>
<path d="M716.756 170.904L698.189 183.361L682.882 159.635L687.707 156.68L700.735 146.073L716.756 170.904Z" fill="#9F7FFF"/>
<path d="M579.588 91.665L615.767 107.894L551.72 178.534L523.256 153.331L579.256 91.5166L579.588 91.665Z" fill="#9F7FFF"/>
<path d="M736.566 157.611L718.001 170.068L701.905 145.121L719.349 130.923L736.566 157.611Z" fill="#9F7FFF"/>
<path d="M740.854 114.129L759.392 142.297L737.812 156.776L720.518 129.971L740.55 113.666L740.854 114.129Z" fill="#9F7FFF"/>
<path d="M573.032 86.3857L573.296 86.7168L517.727 148.437L497.889 130.871L560.056 70.0508L573.032 86.3857Z" fill="#9F7FFF"/>
<path d="M552.752 60.8564L552.808 60.9258L555.054 63.7529L491.514 125.916L466.851 100.355L494.78 75.5049L505.239 87.4541L538.85 52.3633L552.752 60.8564Z" fill="#9F7FFF"/>
<path d="M413.947 245.927L342.571 315.011L330.53 302.97L329.425 303.167L319.795 294.985L392.665 223.851L413.947 245.927Z" fill="#9F7FFF"/>
<path d="M341.494 316.055L326.385 330.678L325.501 316.03L325.495 315.939L325.522 315.853L329.241 303.764L341.494 316.055Z" fill="#12DD70"/>
</svg>
